<mxfile host="app.diagrams.net" modified="2021-05-23T12:11:14.850Z" agent="5.0 (Windows NT 10.0; Win64; x64) AppleWebKit/537.36 (KHTML, like Gecko) Chrome/90.0.4430.212 Safari/537.36" etag="W6mpYX7yEF55MZzDpPP5" version="14.7.0" type="github">
  <diagram id="XGdoLjnfY3XcmI-2t70T" name="第 1 页">
    <mxGraphModel dx="1038" dy="548" grid="1" gridSize="10" guides="1" tooltips="1" connect="1" arrows="1" fold="1" page="1" pageScale="1" pageWidth="827" pageHeight="1169" math="0" shadow="0">
      <root>
        <mxCell id="0" />
        <mxCell id="1" parent="0" />
        <mxCell id="FyI-gBo9Fd6Ji5JiWEGB-1" value="Pool" style="swimlane;html=1;childLayout=stackLayout;resizeParent=1;resizeParentMax=0;startSize=20;horizontal=0;horizontalStack=1;" vertex="1" parent="1">
          <mxGeometry x="230" y="260" width="380" height="480" as="geometry" />
        </mxCell>
        <mxCell id="FyI-gBo9Fd6Ji5JiWEGB-2" value="Lane 1" style="swimlane;html=1;startSize=20;" vertex="1" parent="FyI-gBo9Fd6Ji5JiWEGB-1">
          <mxGeometry x="20" width="120" height="480" as="geometry">
            <mxRectangle x="20" width="30" height="480" as="alternateBounds" />
          </mxGeometry>
        </mxCell>
        <mxCell id="FyI-gBo9Fd6Ji5JiWEGB-3" value="Lane 2" style="swimlane;html=1;startSize=20;" vertex="1" parent="FyI-gBo9Fd6Ji5JiWEGB-1">
          <mxGeometry x="140" width="120" height="480" as="geometry" />
        </mxCell>
        <mxCell id="FyI-gBo9Fd6Ji5JiWEGB-4" value="Lane 3" style="swimlane;html=1;startSize=20;" vertex="1" parent="FyI-gBo9Fd6Ji5JiWEGB-1">
          <mxGeometry x="260" width="120" height="480" as="geometry" />
        </mxCell>
      </root>
    </mxGraphModel>
  </diagram>
</mxfile>
